<mxfile host="app.diagrams.net" modified="2024-02-05T14:06:53.023Z" agent="Mozilla/5.0 (Macintosh; Intel Mac OS X 10.15; rv:122.0) Gecko/20100101 Firefox/122.0" etag="gSvshEJEcMqTbi8EM2sZ" version="23.1.1" type="device">
  <diagram name="Pagina-1" id="3_W2JXILPLDcEDfJNIwF">
    <mxGraphModel dx="1811" dy="599" grid="1" gridSize="10" guides="1" tooltips="1" connect="1" arrows="1" fold="1" page="1" pageScale="1" pageWidth="827" pageHeight="1169" math="0" shadow="0">
      <root>
        <mxCell id="0" />
        <mxCell id="1" parent="0" />
        <mxCell id="g16n6qHyzCJKgT7knGCQ-30" value="corsi" style="shape=table;startSize=30;container=1;collapsible=0;childLayout=tableLayout;fixedRows=1;rowLines=0;fontStyle=0;strokeColor=default;fontSize=16;" parent="1" vertex="1">
          <mxGeometry x="-540" y="525" width="270" height="120" as="geometry" />
        </mxCell>
        <mxCell id="g16n6qHyzCJKgT7knGCQ-31" value="" style="shape=tableRow;horizontal=0;startSize=0;swimlaneHead=0;swimlaneBody=0;top=0;left=0;bottom=0;right=0;collapsible=0;dropTarget=0;fillColor=none;points=[[0,0.5],[1,0.5]];portConstraint=eastwest;strokeColor=inherit;fontSize=16;" parent="g16n6qHyzCJKgT7knGCQ-30" vertex="1">
          <mxGeometry y="30" width="270" height="30" as="geometry" />
        </mxCell>
        <mxCell id="g16n6qHyzCJKgT7knGCQ-32" value="PK" style="shape=partialRectangle;html=1;whiteSpace=wrap;connectable=0;fillColor=none;top=0;left=0;bottom=0;right=0;overflow=hidden;pointerEvents=1;strokeColor=inherit;fontSize=16;" parent="g16n6qHyzCJKgT7knGCQ-31" vertex="1">
          <mxGeometry width="60" height="30" as="geometry">
            <mxRectangle width="60" height="30" as="alternateBounds" />
          </mxGeometry>
        </mxCell>
        <mxCell id="g16n6qHyzCJKgT7knGCQ-33" value="id" style="shape=partialRectangle;html=1;whiteSpace=wrap;connectable=0;fillColor=none;top=0;left=0;bottom=0;right=0;align=left;spacingLeft=6;overflow=hidden;strokeColor=inherit;fontSize=16;" parent="g16n6qHyzCJKgT7knGCQ-31" vertex="1">
          <mxGeometry x="60" width="210" height="30" as="geometry">
            <mxRectangle width="210" height="30" as="alternateBounds" />
          </mxGeometry>
        </mxCell>
        <mxCell id="g16n6qHyzCJKgT7knGCQ-34" value="" style="shape=tableRow;horizontal=0;startSize=0;swimlaneHead=0;swimlaneBody=0;top=0;left=0;bottom=0;right=0;collapsible=0;dropTarget=0;fillColor=none;points=[[0,0.5],[1,0.5]];portConstraint=eastwest;strokeColor=inherit;fontSize=16;" parent="g16n6qHyzCJKgT7knGCQ-30" vertex="1">
          <mxGeometry y="60" width="270" height="30" as="geometry" />
        </mxCell>
        <mxCell id="g16n6qHyzCJKgT7knGCQ-35" value="&lt;div&gt;FK&lt;/div&gt;&lt;div&gt;&lt;br&gt;&lt;/div&gt;" style="shape=partialRectangle;html=1;whiteSpace=wrap;connectable=0;fillColor=none;top=0;left=0;bottom=0;right=0;overflow=hidden;strokeColor=inherit;fontSize=16;" parent="g16n6qHyzCJKgT7knGCQ-34" vertex="1">
          <mxGeometry width="60" height="30" as="geometry">
            <mxRectangle width="60" height="30" as="alternateBounds" />
          </mxGeometry>
        </mxCell>
        <mxCell id="g16n6qHyzCJKgT7knGCQ-36" value="&lt;div&gt;corsi_di_laurea_id&lt;/div&gt;" style="shape=partialRectangle;html=1;whiteSpace=wrap;connectable=0;fillColor=none;top=0;left=0;bottom=0;right=0;align=left;spacingLeft=6;overflow=hidden;strokeColor=inherit;fontSize=16;" parent="g16n6qHyzCJKgT7knGCQ-34" vertex="1">
          <mxGeometry x="60" width="210" height="30" as="geometry">
            <mxRectangle width="210" height="30" as="alternateBounds" />
          </mxGeometry>
        </mxCell>
        <mxCell id="g16n6qHyzCJKgT7knGCQ-37" value="" style="shape=tableRow;horizontal=0;startSize=0;swimlaneHead=0;swimlaneBody=0;top=0;left=0;bottom=0;right=0;collapsible=0;dropTarget=0;fillColor=none;points=[[0,0.5],[1,0.5]];portConstraint=eastwest;strokeColor=inherit;fontSize=16;" parent="g16n6qHyzCJKgT7knGCQ-30" vertex="1">
          <mxGeometry y="90" width="270" height="30" as="geometry" />
        </mxCell>
        <mxCell id="g16n6qHyzCJKgT7knGCQ-38" value="" style="shape=partialRectangle;html=1;whiteSpace=wrap;connectable=0;fillColor=none;top=0;left=0;bottom=0;right=0;overflow=hidden;strokeColor=inherit;fontSize=16;" parent="g16n6qHyzCJKgT7knGCQ-37" vertex="1">
          <mxGeometry width="60" height="30" as="geometry">
            <mxRectangle width="60" height="30" as="alternateBounds" />
          </mxGeometry>
        </mxCell>
        <mxCell id="g16n6qHyzCJKgT7knGCQ-39" value="name" style="shape=partialRectangle;html=1;whiteSpace=wrap;connectable=0;fillColor=none;top=0;left=0;bottom=0;right=0;align=left;spacingLeft=6;overflow=hidden;strokeColor=inherit;fontSize=16;" parent="g16n6qHyzCJKgT7knGCQ-37" vertex="1">
          <mxGeometry x="60" width="210" height="30" as="geometry">
            <mxRectangle width="210" height="30" as="alternateBounds" />
          </mxGeometry>
        </mxCell>
        <mxCell id="g16n6qHyzCJKgT7knGCQ-40" value="teachers" style="shape=table;startSize=30;container=1;collapsible=0;childLayout=tableLayout;fixedRows=1;rowLines=0;fontStyle=0;strokeColor=default;fontSize=16;" parent="1" vertex="1">
          <mxGeometry x="-540" y="710" width="270" height="150" as="geometry" />
        </mxCell>
        <mxCell id="g16n6qHyzCJKgT7knGCQ-41" value="" style="shape=tableRow;horizontal=0;startSize=0;swimlaneHead=0;swimlaneBody=0;top=0;left=0;bottom=0;right=0;collapsible=0;dropTarget=0;fillColor=none;points=[[0,0.5],[1,0.5]];portConstraint=eastwest;strokeColor=inherit;fontSize=16;" parent="g16n6qHyzCJKgT7knGCQ-40" vertex="1">
          <mxGeometry y="30" width="270" height="30" as="geometry" />
        </mxCell>
        <mxCell id="g16n6qHyzCJKgT7knGCQ-42" value="PK" style="shape=partialRectangle;html=1;whiteSpace=wrap;connectable=0;fillColor=none;top=0;left=0;bottom=0;right=0;overflow=hidden;pointerEvents=1;strokeColor=inherit;fontSize=16;" parent="g16n6qHyzCJKgT7knGCQ-41" vertex="1">
          <mxGeometry width="60" height="30" as="geometry">
            <mxRectangle width="60" height="30" as="alternateBounds" />
          </mxGeometry>
        </mxCell>
        <mxCell id="g16n6qHyzCJKgT7knGCQ-43" value="id" style="shape=partialRectangle;html=1;whiteSpace=wrap;connectable=0;fillColor=none;top=0;left=0;bottom=0;right=0;align=left;spacingLeft=6;overflow=hidden;strokeColor=inherit;fontSize=16;" parent="g16n6qHyzCJKgT7knGCQ-41" vertex="1">
          <mxGeometry x="60" width="210" height="30" as="geometry">
            <mxRectangle width="210" height="30" as="alternateBounds" />
          </mxGeometry>
        </mxCell>
        <mxCell id="g16n6qHyzCJKgT7knGCQ-44" value="" style="shape=tableRow;horizontal=0;startSize=0;swimlaneHead=0;swimlaneBody=0;top=0;left=0;bottom=0;right=0;collapsible=0;dropTarget=0;fillColor=none;points=[[0,0.5],[1,0.5]];portConstraint=eastwest;strokeColor=inherit;fontSize=16;" parent="g16n6qHyzCJKgT7knGCQ-40" vertex="1">
          <mxGeometry y="60" width="270" height="30" as="geometry" />
        </mxCell>
        <mxCell id="g16n6qHyzCJKgT7knGCQ-45" value="" style="shape=partialRectangle;html=1;whiteSpace=wrap;connectable=0;fillColor=none;top=0;left=0;bottom=0;right=0;overflow=hidden;strokeColor=inherit;fontSize=16;" parent="g16n6qHyzCJKgT7knGCQ-44" vertex="1">
          <mxGeometry width="60" height="30" as="geometry">
            <mxRectangle width="60" height="30" as="alternateBounds" />
          </mxGeometry>
        </mxCell>
        <mxCell id="g16n6qHyzCJKgT7knGCQ-46" value="name" style="shape=partialRectangle;html=1;whiteSpace=wrap;connectable=0;fillColor=none;top=0;left=0;bottom=0;right=0;align=left;spacingLeft=6;overflow=hidden;strokeColor=inherit;fontSize=16;" parent="g16n6qHyzCJKgT7knGCQ-44" vertex="1">
          <mxGeometry x="60" width="210" height="30" as="geometry">
            <mxRectangle width="210" height="30" as="alternateBounds" />
          </mxGeometry>
        </mxCell>
        <mxCell id="ST3J67a7Y9L-KFOf9t_a-104" style="shape=tableRow;horizontal=0;startSize=0;swimlaneHead=0;swimlaneBody=0;top=0;left=0;bottom=0;right=0;collapsible=0;dropTarget=0;fillColor=none;points=[[0,0.5],[1,0.5]];portConstraint=eastwest;strokeColor=inherit;fontSize=16;" parent="g16n6qHyzCJKgT7knGCQ-40" vertex="1">
          <mxGeometry y="90" width="270" height="30" as="geometry" />
        </mxCell>
        <mxCell id="ST3J67a7Y9L-KFOf9t_a-105" style="shape=partialRectangle;html=1;whiteSpace=wrap;connectable=0;fillColor=none;top=0;left=0;bottom=0;right=0;overflow=hidden;strokeColor=inherit;fontSize=16;" parent="ST3J67a7Y9L-KFOf9t_a-104" vertex="1">
          <mxGeometry width="60" height="30" as="geometry">
            <mxRectangle width="60" height="30" as="alternateBounds" />
          </mxGeometry>
        </mxCell>
        <mxCell id="ST3J67a7Y9L-KFOf9t_a-106" value="cognome" style="shape=partialRectangle;html=1;whiteSpace=wrap;connectable=0;fillColor=none;top=0;left=0;bottom=0;right=0;align=left;spacingLeft=6;overflow=hidden;strokeColor=inherit;fontSize=16;" parent="ST3J67a7Y9L-KFOf9t_a-104" vertex="1">
          <mxGeometry x="60" width="210" height="30" as="geometry">
            <mxRectangle width="210" height="30" as="alternateBounds" />
          </mxGeometry>
        </mxCell>
        <mxCell id="ST3J67a7Y9L-KFOf9t_a-107" style="shape=tableRow;horizontal=0;startSize=0;swimlaneHead=0;swimlaneBody=0;top=0;left=0;bottom=0;right=0;collapsible=0;dropTarget=0;fillColor=none;points=[[0,0.5],[1,0.5]];portConstraint=eastwest;strokeColor=inherit;fontSize=16;" parent="g16n6qHyzCJKgT7knGCQ-40" vertex="1">
          <mxGeometry y="120" width="270" height="30" as="geometry" />
        </mxCell>
        <mxCell id="ST3J67a7Y9L-KFOf9t_a-108" value="" style="shape=partialRectangle;html=1;whiteSpace=wrap;connectable=0;fillColor=none;top=0;left=0;bottom=0;right=0;overflow=hidden;strokeColor=inherit;fontSize=16;" parent="ST3J67a7Y9L-KFOf9t_a-107" vertex="1">
          <mxGeometry width="60" height="30" as="geometry">
            <mxRectangle width="60" height="30" as="alternateBounds" />
          </mxGeometry>
        </mxCell>
        <mxCell id="ST3J67a7Y9L-KFOf9t_a-109" value="" style="shape=partialRectangle;html=1;whiteSpace=wrap;connectable=0;fillColor=none;top=0;left=0;bottom=0;right=0;align=left;spacingLeft=6;overflow=hidden;strokeColor=inherit;fontSize=16;" parent="ST3J67a7Y9L-KFOf9t_a-107" vertex="1">
          <mxGeometry x="60" width="210" height="30" as="geometry">
            <mxRectangle width="210" height="30" as="alternateBounds" />
          </mxGeometry>
        </mxCell>
        <mxCell id="g16n6qHyzCJKgT7knGCQ-5" value="Dipartimenti" style="shape=table;startSize=30;container=1;collapsible=0;childLayout=tableLayout;fixedRows=1;rowLines=0;fontStyle=0;strokeColor=default;fontSize=16;verticalAlign=middle;spacingTop=0;swimlaneLine=1;shadow=0;rounded=0;" parent="1" vertex="1">
          <mxGeometry x="-540" y="80" width="270" height="90" as="geometry" />
        </mxCell>
        <mxCell id="g16n6qHyzCJKgT7knGCQ-6" value="" style="shape=tableRow;horizontal=0;startSize=0;swimlaneHead=0;swimlaneBody=0;top=0;left=0;bottom=0;right=0;collapsible=0;dropTarget=0;fillColor=none;points=[[0,0.5],[1,0.5]];portConstraint=eastwest;strokeColor=inherit;fontSize=16;" parent="g16n6qHyzCJKgT7knGCQ-5" vertex="1">
          <mxGeometry y="30" width="270" height="30" as="geometry" />
        </mxCell>
        <mxCell id="g16n6qHyzCJKgT7knGCQ-7" value="PK" style="shape=partialRectangle;html=1;whiteSpace=wrap;connectable=0;fillColor=none;top=0;left=0;bottom=0;right=0;overflow=hidden;pointerEvents=1;strokeColor=inherit;fontSize=16;" parent="g16n6qHyzCJKgT7knGCQ-6" vertex="1">
          <mxGeometry width="60" height="30" as="geometry">
            <mxRectangle width="60" height="30" as="alternateBounds" />
          </mxGeometry>
        </mxCell>
        <mxCell id="g16n6qHyzCJKgT7knGCQ-8" value="ID_DEPARTMENTS" style="shape=partialRectangle;html=1;whiteSpace=wrap;connectable=0;fillColor=none;top=0;left=0;bottom=0;right=0;align=left;spacingLeft=6;overflow=hidden;strokeColor=inherit;fontSize=16;" parent="g16n6qHyzCJKgT7knGCQ-6" vertex="1">
          <mxGeometry x="60" width="210" height="30" as="geometry">
            <mxRectangle width="210" height="30" as="alternateBounds" />
          </mxGeometry>
        </mxCell>
        <mxCell id="g16n6qHyzCJKgT7knGCQ-9" value="" style="shape=tableRow;horizontal=0;startSize=0;swimlaneHead=0;swimlaneBody=0;top=0;left=0;bottom=0;right=0;collapsible=0;dropTarget=0;fillColor=none;points=[[0,0.5],[1,0.5]];portConstraint=eastwest;strokeColor=inherit;fontSize=16;" parent="g16n6qHyzCJKgT7knGCQ-5" vertex="1">
          <mxGeometry y="60" width="270" height="30" as="geometry" />
        </mxCell>
        <mxCell id="g16n6qHyzCJKgT7knGCQ-10" value="" style="shape=partialRectangle;html=1;whiteSpace=wrap;connectable=0;fillColor=none;top=0;left=0;bottom=0;right=0;overflow=hidden;strokeColor=inherit;fontSize=16;" parent="g16n6qHyzCJKgT7knGCQ-9" vertex="1">
          <mxGeometry width="60" height="30" as="geometry">
            <mxRectangle width="60" height="30" as="alternateBounds" />
          </mxGeometry>
        </mxCell>
        <mxCell id="g16n6qHyzCJKgT7knGCQ-11" value="DEPARTMENTS_NAME" style="shape=partialRectangle;html=1;whiteSpace=wrap;connectable=0;fillColor=none;top=0;left=0;bottom=0;right=0;align=left;spacingLeft=6;overflow=hidden;strokeColor=inherit;fontSize=16;" parent="g16n6qHyzCJKgT7knGCQ-9" vertex="1">
          <mxGeometry x="60" width="210" height="30" as="geometry">
            <mxRectangle width="210" height="30" as="alternateBounds" />
          </mxGeometry>
        </mxCell>
        <mxCell id="g16n6qHyzCJKgT7knGCQ-15" value="corsi di laurea" style="shape=table;startSize=30;container=1;collapsible=0;childLayout=tableLayout;fixedRows=1;rowLines=0;fontStyle=0;strokeColor=default;fontSize=16;spacingTop=0;" parent="1" vertex="1">
          <mxGeometry x="-540" y="320" width="270" height="120" as="geometry" />
        </mxCell>
        <mxCell id="g16n6qHyzCJKgT7knGCQ-16" value="" style="shape=tableRow;horizontal=0;startSize=0;swimlaneHead=0;swimlaneBody=0;top=0;left=0;bottom=0;right=0;collapsible=0;dropTarget=0;fillColor=none;points=[[0,0.5],[1,0.5]];portConstraint=eastwest;strokeColor=inherit;fontSize=16;" parent="g16n6qHyzCJKgT7knGCQ-15" vertex="1">
          <mxGeometry y="30" width="270" height="30" as="geometry" />
        </mxCell>
        <mxCell id="g16n6qHyzCJKgT7knGCQ-17" value="PK" style="shape=partialRectangle;html=1;whiteSpace=wrap;connectable=0;fillColor=none;top=0;left=0;bottom=0;right=0;overflow=hidden;pointerEvents=1;strokeColor=inherit;fontSize=16;" parent="g16n6qHyzCJKgT7knGCQ-16" vertex="1">
          <mxGeometry width="60" height="30" as="geometry">
            <mxRectangle width="60" height="30" as="alternateBounds" />
          </mxGeometry>
        </mxCell>
        <mxCell id="g16n6qHyzCJKgT7knGCQ-18" value="id" style="shape=partialRectangle;html=1;whiteSpace=wrap;connectable=0;fillColor=none;top=0;left=0;bottom=0;right=0;align=left;spacingLeft=6;overflow=hidden;strokeColor=inherit;fontSize=16;" parent="g16n6qHyzCJKgT7knGCQ-16" vertex="1">
          <mxGeometry x="60" width="210" height="30" as="geometry">
            <mxRectangle width="210" height="30" as="alternateBounds" />
          </mxGeometry>
        </mxCell>
        <mxCell id="g16n6qHyzCJKgT7knGCQ-19" value="" style="shape=tableRow;horizontal=0;startSize=0;swimlaneHead=0;swimlaneBody=0;top=0;left=0;bottom=0;right=0;collapsible=0;dropTarget=0;fillColor=none;points=[[0,0.5],[1,0.5]];portConstraint=eastwest;strokeColor=inherit;fontSize=16;" parent="g16n6qHyzCJKgT7knGCQ-15" vertex="1">
          <mxGeometry y="60" width="270" height="30" as="geometry" />
        </mxCell>
        <mxCell id="g16n6qHyzCJKgT7knGCQ-20" value="&lt;div&gt;FK&lt;/div&gt;&lt;div&gt;&lt;br&gt;&lt;/div&gt;" style="shape=partialRectangle;html=1;whiteSpace=wrap;connectable=0;fillColor=none;top=0;left=0;bottom=0;right=0;overflow=hidden;strokeColor=inherit;fontSize=16;" parent="g16n6qHyzCJKgT7knGCQ-19" vertex="1">
          <mxGeometry width="60" height="30" as="geometry">
            <mxRectangle width="60" height="30" as="alternateBounds" />
          </mxGeometry>
        </mxCell>
        <mxCell id="g16n6qHyzCJKgT7knGCQ-21" value="&lt;div&gt;departments_id&lt;/div&gt;&lt;div&gt;&lt;br&gt;&lt;/div&gt;" style="shape=partialRectangle;html=1;whiteSpace=wrap;connectable=0;fillColor=none;top=0;left=0;bottom=0;right=0;align=left;spacingLeft=6;overflow=hidden;strokeColor=inherit;fontSize=16;" parent="g16n6qHyzCJKgT7knGCQ-19" vertex="1">
          <mxGeometry x="60" width="210" height="30" as="geometry">
            <mxRectangle width="210" height="30" as="alternateBounds" />
          </mxGeometry>
        </mxCell>
        <mxCell id="g16n6qHyzCJKgT7knGCQ-22" value="" style="shape=tableRow;horizontal=0;startSize=0;swimlaneHead=0;swimlaneBody=0;top=0;left=0;bottom=0;right=0;collapsible=0;dropTarget=0;fillColor=none;points=[[0,0.5],[1,0.5]];portConstraint=eastwest;strokeColor=inherit;fontSize=16;" parent="g16n6qHyzCJKgT7knGCQ-15" vertex="1">
          <mxGeometry y="90" width="270" height="30" as="geometry" />
        </mxCell>
        <mxCell id="g16n6qHyzCJKgT7knGCQ-23" value="" style="shape=partialRectangle;html=1;whiteSpace=wrap;connectable=0;fillColor=none;top=0;left=0;bottom=0;right=0;overflow=hidden;strokeColor=inherit;fontSize=16;" parent="g16n6qHyzCJKgT7knGCQ-22" vertex="1">
          <mxGeometry width="60" height="30" as="geometry">
            <mxRectangle width="60" height="30" as="alternateBounds" />
          </mxGeometry>
        </mxCell>
        <mxCell id="g16n6qHyzCJKgT7knGCQ-24" value="name" style="shape=partialRectangle;html=1;whiteSpace=wrap;connectable=0;fillColor=none;top=0;left=0;bottom=0;right=0;align=left;spacingLeft=6;overflow=hidden;strokeColor=inherit;fontSize=16;" parent="g16n6qHyzCJKgT7knGCQ-22" vertex="1">
          <mxGeometry x="60" width="210" height="30" as="geometry">
            <mxRectangle width="210" height="30" as="alternateBounds" />
          </mxGeometry>
        </mxCell>
        <mxCell id="ST3J67a7Y9L-KFOf9t_a-42" value="Studente" style="shape=table;startSize=30;container=1;collapsible=0;childLayout=tableLayout;fixedRows=1;rowLines=0;fontStyle=0;strokeColor=default;fontSize=16;verticalAlign=middle;spacingTop=0;swimlaneLine=1;shadow=0;rounded=0;" parent="1" vertex="1">
          <mxGeometry x="-180" y="80" width="270" height="120" as="geometry" />
        </mxCell>
        <mxCell id="ST3J67a7Y9L-KFOf9t_a-43" value="" style="shape=tableRow;horizontal=0;startSize=0;swimlaneHead=0;swimlaneBody=0;top=0;left=0;bottom=0;right=0;collapsible=0;dropTarget=0;fillColor=none;points=[[0,0.5],[1,0.5]];portConstraint=eastwest;strokeColor=inherit;fontSize=16;" parent="ST3J67a7Y9L-KFOf9t_a-42" vertex="1">
          <mxGeometry y="30" width="270" height="30" as="geometry" />
        </mxCell>
        <mxCell id="ST3J67a7Y9L-KFOf9t_a-44" value="PK" style="shape=partialRectangle;html=1;whiteSpace=wrap;connectable=0;fillColor=none;top=0;left=0;bottom=0;right=0;overflow=hidden;pointerEvents=1;strokeColor=inherit;fontSize=16;" parent="ST3J67a7Y9L-KFOf9t_a-43" vertex="1">
          <mxGeometry width="60" height="30" as="geometry">
            <mxRectangle width="60" height="30" as="alternateBounds" />
          </mxGeometry>
        </mxCell>
        <mxCell id="ST3J67a7Y9L-KFOf9t_a-45" value="id" style="shape=partialRectangle;html=1;whiteSpace=wrap;connectable=0;fillColor=none;top=0;left=0;bottom=0;right=0;align=left;spacingLeft=6;overflow=hidden;strokeColor=inherit;fontSize=16;" parent="ST3J67a7Y9L-KFOf9t_a-43" vertex="1">
          <mxGeometry x="60" width="210" height="30" as="geometry">
            <mxRectangle width="210" height="30" as="alternateBounds" />
          </mxGeometry>
        </mxCell>
        <mxCell id="ST3J67a7Y9L-KFOf9t_a-46" value="" style="shape=tableRow;horizontal=0;startSize=0;swimlaneHead=0;swimlaneBody=0;top=0;left=0;bottom=0;right=0;collapsible=0;dropTarget=0;fillColor=none;points=[[0,0.5],[1,0.5]];portConstraint=eastwest;strokeColor=inherit;fontSize=16;" parent="ST3J67a7Y9L-KFOf9t_a-42" vertex="1">
          <mxGeometry y="60" width="270" height="30" as="geometry" />
        </mxCell>
        <mxCell id="ST3J67a7Y9L-KFOf9t_a-47" value="" style="shape=partialRectangle;html=1;whiteSpace=wrap;connectable=0;fillColor=none;top=0;left=0;bottom=0;right=0;overflow=hidden;strokeColor=inherit;fontSize=16;" parent="ST3J67a7Y9L-KFOf9t_a-46" vertex="1">
          <mxGeometry width="60" height="30" as="geometry">
            <mxRectangle width="60" height="30" as="alternateBounds" />
          </mxGeometry>
        </mxCell>
        <mxCell id="ST3J67a7Y9L-KFOf9t_a-48" value="name" style="shape=partialRectangle;html=1;whiteSpace=wrap;connectable=0;fillColor=none;top=0;left=0;bottom=0;right=0;align=left;spacingLeft=6;overflow=hidden;strokeColor=inherit;fontSize=16;" parent="ST3J67a7Y9L-KFOf9t_a-46" vertex="1">
          <mxGeometry x="60" width="210" height="30" as="geometry">
            <mxRectangle width="210" height="30" as="alternateBounds" />
          </mxGeometry>
        </mxCell>
        <mxCell id="ST3J67a7Y9L-KFOf9t_a-82" style="shape=tableRow;horizontal=0;startSize=0;swimlaneHead=0;swimlaneBody=0;top=0;left=0;bottom=0;right=0;collapsible=0;dropTarget=0;fillColor=none;points=[[0,0.5],[1,0.5]];portConstraint=eastwest;strokeColor=inherit;fontSize=16;" parent="ST3J67a7Y9L-KFOf9t_a-42" vertex="1">
          <mxGeometry y="90" width="270" height="30" as="geometry" />
        </mxCell>
        <mxCell id="ST3J67a7Y9L-KFOf9t_a-83" style="shape=partialRectangle;html=1;whiteSpace=wrap;connectable=0;fillColor=none;top=0;left=0;bottom=0;right=0;overflow=hidden;strokeColor=inherit;fontSize=16;" parent="ST3J67a7Y9L-KFOf9t_a-82" vertex="1">
          <mxGeometry width="60" height="30" as="geometry">
            <mxRectangle width="60" height="30" as="alternateBounds" />
          </mxGeometry>
        </mxCell>
        <mxCell id="ST3J67a7Y9L-KFOf9t_a-84" value="&lt;div&gt;cognome&lt;/div&gt;" style="shape=partialRectangle;html=1;whiteSpace=wrap;connectable=0;fillColor=none;top=0;left=0;bottom=0;right=0;align=left;spacingLeft=6;overflow=hidden;strokeColor=inherit;fontSize=16;" parent="ST3J67a7Y9L-KFOf9t_a-82" vertex="1">
          <mxGeometry x="60" width="210" height="30" as="geometry">
            <mxRectangle width="210" height="30" as="alternateBounds" />
          </mxGeometry>
        </mxCell>
        <mxCell id="ST3J67a7Y9L-KFOf9t_a-49" value="" style="shape=link;html=1;rounded=0;fontFamily=Helvetica;fontSize=16;fontColor=default;startSize=30;exitX=0.5;exitY=1;exitDx=0;exitDy=0;entryX=0.5;entryY=0;entryDx=0;entryDy=0;width=-8;" parent="1" edge="1">
          <mxGeometry width="100" relative="1" as="geometry">
            <mxPoint x="-405.5" y="170" as="sourcePoint" />
            <mxPoint x="-405.5" y="320" as="targetPoint" />
          </mxGeometry>
        </mxCell>
        <mxCell id="ST3J67a7Y9L-KFOf9t_a-52" value="&lt;div&gt;1&lt;/div&gt;" style="edgeLabel;html=1;align=center;verticalAlign=middle;resizable=0;points=[];fontSize=16;fontFamily=Helvetica;fontColor=default;" parent="ST3J67a7Y9L-KFOf9t_a-49" vertex="1" connectable="0">
          <mxGeometry x="-0.5333" y="3" relative="1" as="geometry">
            <mxPoint x="12" y="-5" as="offset" />
          </mxGeometry>
        </mxCell>
        <mxCell id="ST3J67a7Y9L-KFOf9t_a-51" value="&lt;div&gt;&amp;nbsp;N&lt;/div&gt;" style="edgeLabel;html=1;align=center;verticalAlign=middle;resizable=0;points=[];fontSize=16;fontFamily=Helvetica;fontColor=default;labelBackgroundColor=none;" parent="1" vertex="1" connectable="0">
          <mxGeometry x="-380" y="210" as="geometry">
            <mxPoint x="-14" y="90" as="offset" />
          </mxGeometry>
        </mxCell>
        <mxCell id="ST3J67a7Y9L-KFOf9t_a-56" value="" style="shape=link;html=1;rounded=0;fontFamily=Helvetica;fontSize=16;fontColor=default;startSize=30;exitX=0.5;exitY=1;exitDx=0;exitDy=0;entryX=0.5;entryY=0;entryDx=0;entryDy=0;" parent="1" source="g16n6qHyzCJKgT7knGCQ-15" target="g16n6qHyzCJKgT7knGCQ-30" edge="1">
          <mxGeometry width="100" relative="1" as="geometry">
            <mxPoint x="-300" y="460" as="sourcePoint" />
            <mxPoint x="-200" y="460" as="targetPoint" />
          </mxGeometry>
        </mxCell>
        <mxCell id="ST3J67a7Y9L-KFOf9t_a-57" value="&amp;nbsp;1" style="edgeLabel;html=1;align=center;verticalAlign=middle;resizable=0;points=[];fontSize=16;fontFamily=Helvetica;fontColor=default;" parent="ST3J67a7Y9L-KFOf9t_a-56" vertex="1" connectable="0">
          <mxGeometry x="-0.4824" y="9" relative="1" as="geometry">
            <mxPoint as="offset" />
          </mxGeometry>
        </mxCell>
        <mxCell id="ST3J67a7Y9L-KFOf9t_a-58" value="N" style="edgeLabel;html=1;align=center;verticalAlign=middle;resizable=0;points=[];fontSize=16;fontFamily=Helvetica;fontColor=default;" parent="ST3J67a7Y9L-KFOf9t_a-56" vertex="1" connectable="0">
          <mxGeometry x="0.4824" y="-7" relative="1" as="geometry">
            <mxPoint x="22" as="offset" />
          </mxGeometry>
        </mxCell>
        <mxCell id="ST3J67a7Y9L-KFOf9t_a-62" value="" style="shape=link;html=1;rounded=0;fontFamily=Helvetica;fontSize=16;fontColor=default;startSize=30;exitX=0.5;exitY=1;exitDx=0;exitDy=0;entryX=0.5;entryY=0;entryDx=0;entryDy=0;" parent="1" source="g16n6qHyzCJKgT7knGCQ-30" target="g16n6qHyzCJKgT7knGCQ-40" edge="1">
          <mxGeometry width="100" relative="1" as="geometry">
            <mxPoint x="-300" y="600" as="sourcePoint" />
            <mxPoint x="-200" y="600" as="targetPoint" />
          </mxGeometry>
        </mxCell>
        <mxCell id="ST3J67a7Y9L-KFOf9t_a-63" value="N" style="edgeLabel;html=1;align=center;verticalAlign=middle;resizable=0;points=[];fontSize=16;fontFamily=Helvetica;fontColor=default;" parent="ST3J67a7Y9L-KFOf9t_a-62" vertex="1" connectable="0">
          <mxGeometry x="-0.5077" y="8" relative="1" as="geometry">
            <mxPoint x="7" as="offset" />
          </mxGeometry>
        </mxCell>
        <mxCell id="ST3J67a7Y9L-KFOf9t_a-64" value="M" style="edgeLabel;html=1;align=center;verticalAlign=middle;resizable=0;points=[];fontSize=16;fontFamily=Helvetica;fontColor=default;" parent="ST3J67a7Y9L-KFOf9t_a-62" vertex="1" connectable="0">
          <mxGeometry x="0.5385" y="-5" relative="1" as="geometry">
            <mxPoint x="20" as="offset" />
          </mxGeometry>
        </mxCell>
        <mxCell id="ST3J67a7Y9L-KFOf9t_a-65" value="Appelli" style="shape=table;startSize=30;container=1;collapsible=0;childLayout=tableLayout;fixedRows=1;rowLines=0;fontStyle=0;strokeColor=default;fontSize=16;" parent="1" vertex="1">
          <mxGeometry x="-180" y="555" width="270" height="120" as="geometry" />
        </mxCell>
        <mxCell id="ST3J67a7Y9L-KFOf9t_a-66" value="" style="shape=tableRow;horizontal=0;startSize=0;swimlaneHead=0;swimlaneBody=0;top=0;left=0;bottom=0;right=0;collapsible=0;dropTarget=0;fillColor=none;points=[[0,0.5],[1,0.5]];portConstraint=eastwest;strokeColor=inherit;fontSize=16;" parent="ST3J67a7Y9L-KFOf9t_a-65" vertex="1">
          <mxGeometry y="30" width="270" height="30" as="geometry" />
        </mxCell>
        <mxCell id="ST3J67a7Y9L-KFOf9t_a-67" value="PK" style="shape=partialRectangle;html=1;whiteSpace=wrap;connectable=0;fillColor=none;top=0;left=0;bottom=0;right=0;overflow=hidden;pointerEvents=1;strokeColor=inherit;fontSize=16;" parent="ST3J67a7Y9L-KFOf9t_a-66" vertex="1">
          <mxGeometry width="60" height="30" as="geometry">
            <mxRectangle width="60" height="30" as="alternateBounds" />
          </mxGeometry>
        </mxCell>
        <mxCell id="ST3J67a7Y9L-KFOf9t_a-68" value="id" style="shape=partialRectangle;html=1;whiteSpace=wrap;connectable=0;fillColor=none;top=0;left=0;bottom=0;right=0;align=left;spacingLeft=6;overflow=hidden;strokeColor=inherit;fontSize=16;" parent="ST3J67a7Y9L-KFOf9t_a-66" vertex="1">
          <mxGeometry x="60" width="210" height="30" as="geometry">
            <mxRectangle width="210" height="30" as="alternateBounds" />
          </mxGeometry>
        </mxCell>
        <mxCell id="ST3J67a7Y9L-KFOf9t_a-69" value="" style="shape=tableRow;horizontal=0;startSize=0;swimlaneHead=0;swimlaneBody=0;top=0;left=0;bottom=0;right=0;collapsible=0;dropTarget=0;fillColor=none;points=[[0,0.5],[1,0.5]];portConstraint=eastwest;strokeColor=inherit;fontSize=16;" parent="ST3J67a7Y9L-KFOf9t_a-65" vertex="1">
          <mxGeometry y="60" width="270" height="30" as="geometry" />
        </mxCell>
        <mxCell id="ST3J67a7Y9L-KFOf9t_a-70" value="FK" style="shape=partialRectangle;html=1;whiteSpace=wrap;connectable=0;fillColor=none;top=0;left=0;bottom=0;right=0;overflow=hidden;strokeColor=inherit;fontSize=16;" parent="ST3J67a7Y9L-KFOf9t_a-69" vertex="1">
          <mxGeometry width="60" height="30" as="geometry">
            <mxRectangle width="60" height="30" as="alternateBounds" />
          </mxGeometry>
        </mxCell>
        <mxCell id="ST3J67a7Y9L-KFOf9t_a-71" value="studente_id" style="shape=partialRectangle;html=1;whiteSpace=wrap;connectable=0;fillColor=none;top=0;left=0;bottom=0;right=0;align=left;spacingLeft=6;overflow=hidden;strokeColor=inherit;fontSize=16;" parent="ST3J67a7Y9L-KFOf9t_a-69" vertex="1">
          <mxGeometry x="60" width="210" height="30" as="geometry">
            <mxRectangle width="210" height="30" as="alternateBounds" />
          </mxGeometry>
        </mxCell>
        <mxCell id="ST3J67a7Y9L-KFOf9t_a-101" style="shape=tableRow;horizontal=0;startSize=0;swimlaneHead=0;swimlaneBody=0;top=0;left=0;bottom=0;right=0;collapsible=0;dropTarget=0;fillColor=none;points=[[0,0.5],[1,0.5]];portConstraint=eastwest;strokeColor=inherit;fontSize=16;" parent="ST3J67a7Y9L-KFOf9t_a-65" vertex="1">
          <mxGeometry y="90" width="270" height="30" as="geometry" />
        </mxCell>
        <mxCell id="ST3J67a7Y9L-KFOf9t_a-102" value="" style="shape=partialRectangle;html=1;whiteSpace=wrap;connectable=0;fillColor=none;top=0;left=0;bottom=0;right=0;overflow=hidden;strokeColor=inherit;fontSize=16;" parent="ST3J67a7Y9L-KFOf9t_a-101" vertex="1">
          <mxGeometry width="60" height="30" as="geometry">
            <mxRectangle width="60" height="30" as="alternateBounds" />
          </mxGeometry>
        </mxCell>
        <mxCell id="ST3J67a7Y9L-KFOf9t_a-103" value="data" style="shape=partialRectangle;html=1;whiteSpace=wrap;connectable=0;fillColor=none;top=0;left=0;bottom=0;right=0;align=left;spacingLeft=6;overflow=hidden;strokeColor=inherit;fontSize=16;" parent="ST3J67a7Y9L-KFOf9t_a-101" vertex="1">
          <mxGeometry x="60" width="210" height="30" as="geometry">
            <mxRectangle width="210" height="30" as="alternateBounds" />
          </mxGeometry>
        </mxCell>
        <mxCell id="ST3J67a7Y9L-KFOf9t_a-72" value="" style="shape=link;html=1;rounded=0;fontFamily=Helvetica;fontSize=16;fontColor=default;startSize=30;exitX=1;exitY=0.5;exitDx=0;exitDy=0;entryX=0;entryY=0.5;entryDx=0;entryDy=0;" parent="1" source="g16n6qHyzCJKgT7knGCQ-34" target="ST3J67a7Y9L-KFOf9t_a-66" edge="1">
          <mxGeometry width="100" relative="1" as="geometry">
            <mxPoint x="-300" y="690" as="sourcePoint" />
            <mxPoint x="-200" y="690" as="targetPoint" />
          </mxGeometry>
        </mxCell>
        <mxCell id="ST3J67a7Y9L-KFOf9t_a-73" value="1" style="edgeLabel;html=1;align=center;verticalAlign=middle;resizable=0;points=[];fontSize=16;fontFamily=Helvetica;fontColor=default;" parent="ST3J67a7Y9L-KFOf9t_a-72" vertex="1" connectable="0">
          <mxGeometry x="-0.4222" y="8" relative="1" as="geometry">
            <mxPoint x="4" y="-7" as="offset" />
          </mxGeometry>
        </mxCell>
        <mxCell id="ST3J67a7Y9L-KFOf9t_a-74" value="N" style="edgeLabel;html=1;align=center;verticalAlign=middle;resizable=0;points=[];fontSize=16;fontFamily=Helvetica;fontColor=default;" parent="ST3J67a7Y9L-KFOf9t_a-72" vertex="1" connectable="0">
          <mxGeometry x="0.4889" y="-4" relative="1" as="geometry">
            <mxPoint y="16" as="offset" />
          </mxGeometry>
        </mxCell>
        <mxCell id="ST3J67a7Y9L-KFOf9t_a-85" value="" style="shape=link;html=1;rounded=0;fontFamily=Helvetica;fontSize=16;fontColor=default;startSize=30;exitX=0.226;exitY=1.033;exitDx=0;exitDy=0;exitPerimeter=0;" parent="1" source="ST3J67a7Y9L-KFOf9t_a-82" edge="1">
          <mxGeometry width="100" relative="1" as="geometry">
            <mxPoint x="-300" y="330" as="sourcePoint" />
            <mxPoint x="-119" y="400" as="targetPoint" />
          </mxGeometry>
        </mxCell>
        <mxCell id="ST3J67a7Y9L-KFOf9t_a-89" value="1" style="edgeLabel;html=1;align=center;verticalAlign=middle;resizable=0;points=[];fontSize=16;fontFamily=Helvetica;fontColor=default;" parent="ST3J67a7Y9L-KFOf9t_a-85" vertex="1" connectable="0">
          <mxGeometry x="-0.5376" y="9" relative="1" as="geometry">
            <mxPoint y="-7" as="offset" />
          </mxGeometry>
        </mxCell>
        <mxCell id="ST3J67a7Y9L-KFOf9t_a-88" value="" style="shape=link;html=1;rounded=0;fontFamily=Helvetica;fontSize=16;fontColor=default;startSize=30;exitX=1;exitY=0.5;exitDx=0;exitDy=0;" parent="1" source="g16n6qHyzCJKgT7knGCQ-19" edge="1">
          <mxGeometry width="100" relative="1" as="geometry">
            <mxPoint x="-300" y="330" as="sourcePoint" />
            <mxPoint x="-120" y="395" as="targetPoint" />
          </mxGeometry>
        </mxCell>
        <mxCell id="ST3J67a7Y9L-KFOf9t_a-90" value="N" style="edgeLabel;html=1;align=center;verticalAlign=middle;resizable=0;points=[];fontSize=16;fontFamily=Helvetica;fontColor=default;" parent="ST3J67a7Y9L-KFOf9t_a-88" vertex="1" connectable="0">
          <mxGeometry x="0.3067" y="-1" relative="1" as="geometry">
            <mxPoint y="14" as="offset" />
          </mxGeometry>
        </mxCell>
        <mxCell id="ST3J67a7Y9L-KFOf9t_a-91" value="" style="shape=link;html=1;rounded=0;fontFamily=Helvetica;fontSize=16;fontColor=default;startSize=30;entryX=0.5;entryY=1;entryDx=0;entryDy=0;" parent="1" source="ST3J67a7Y9L-KFOf9t_a-94" target="ST3J67a7Y9L-KFOf9t_a-42" edge="1">
          <mxGeometry width="100" relative="1" as="geometry">
            <mxPoint y="550" as="sourcePoint" />
            <mxPoint x="-170" y="370" as="targetPoint" />
          </mxGeometry>
        </mxCell>
        <mxCell id="ST3J67a7Y9L-KFOf9t_a-92" value="N" style="edgeLabel;html=1;align=center;verticalAlign=middle;resizable=0;points=[];fontSize=16;fontFamily=Helvetica;fontColor=default;" parent="ST3J67a7Y9L-KFOf9t_a-91" vertex="1" connectable="0">
          <mxGeometry x="0.5042" y="-9" relative="1" as="geometry">
            <mxPoint x="6" y="-18" as="offset" />
          </mxGeometry>
        </mxCell>
        <mxCell id="ST3J67a7Y9L-KFOf9t_a-96" value="&lt;font style=&quot;font-size: 14px;&quot;&gt;Voto&lt;/font&gt;" style="ellipse;whiteSpace=wrap;html=1;strokeColor=default;align=center;verticalAlign=middle;spacingTop=0;fontFamily=Helvetica;fontSize=16;fontColor=default;startSize=30;fillColor=default;" parent="1" vertex="1">
          <mxGeometry x="10" y="365" width="60" height="30" as="geometry" />
        </mxCell>
        <mxCell id="ST3J67a7Y9L-KFOf9t_a-97" value="" style="shape=link;html=1;rounded=0;fontFamily=Helvetica;fontSize=16;fontColor=default;startSize=30;entryX=0.5;entryY=1;entryDx=0;entryDy=0;" parent="1" source="ST3J67a7Y9L-KFOf9t_a-65" target="ST3J67a7Y9L-KFOf9t_a-94" edge="1">
          <mxGeometry width="100" relative="1" as="geometry">
            <mxPoint x="-45" y="555" as="sourcePoint" />
            <mxPoint x="-45" y="200" as="targetPoint" />
          </mxGeometry>
        </mxCell>
        <mxCell id="ST3J67a7Y9L-KFOf9t_a-99" value="M" style="edgeLabel;html=1;align=center;verticalAlign=middle;resizable=0;points=[];fontSize=16;fontFamily=Helvetica;fontColor=default;" parent="ST3J67a7Y9L-KFOf9t_a-97" vertex="1" connectable="0">
          <mxGeometry x="-0.5099" y="6" relative="1" as="geometry">
            <mxPoint x="21" as="offset" />
          </mxGeometry>
        </mxCell>
        <mxCell id="ST3J67a7Y9L-KFOf9t_a-94" value="&lt;font style=&quot;font-size: 13px;&quot;&gt;Mantiene&lt;/font&gt;" style="rhombus;whiteSpace=wrap;html=1;strokeColor=default;align=center;verticalAlign=middle;spacingTop=0;fontFamily=Helvetica;fontSize=16;fontColor=default;startSize=30;fillColor=default;" parent="1" vertex="1">
          <mxGeometry x="-87.5" y="390" width="85" height="50" as="geometry" />
        </mxCell>
        <mxCell id="ST3J67a7Y9L-KFOf9t_a-100" value="" style="endArrow=none;html=1;rounded=0;fontFamily=Helvetica;fontSize=16;fontColor=default;startSize=30;entryX=0.05;entryY=0.733;entryDx=0;entryDy=0;entryPerimeter=0;exitX=1;exitY=0;exitDx=0;exitDy=0;" parent="1" source="ST3J67a7Y9L-KFOf9t_a-94" target="ST3J67a7Y9L-KFOf9t_a-96" edge="1">
          <mxGeometry width="50" height="50" relative="1" as="geometry">
            <mxPoint x="-250" y="480" as="sourcePoint" />
            <mxPoint x="-200" y="430" as="targetPoint" />
          </mxGeometry>
        </mxCell>
      </root>
    </mxGraphModel>
  </diagram>
</mxfile>
